<?xml version="1.0" encoding="UTF-8" standalone="no"?>
<!-- Created with Inkscape (http://www.inkscape.org/) -->

<svg
   xmlns:dc="http://purl.org/dc/elements/1.1/"
   xmlns:cc="http://creativecommons.org/ns#"
   xmlns:rdf="http://www.w3.org/1999/02/22-rdf-syntax-ns#"
   xmlns:svg="http://www.w3.org/2000/svg"
   xmlns="http://www.w3.org/2000/svg"
   xmlns:sodipodi="http://sodipodi.sourceforge.net/DTD/sodipodi-0.dtd"
   xmlns:inkscape="http://www.inkscape.org/namespaces/inkscape"
   width="297mm"
   height="210mm"
   viewBox="0 0 297 210"
   version="1.1"
   id="svg8"
   inkscape:version="0.92.3 (2405546, 2018-03-11)"
   sodipodi:docname="riscv_adacore_A4.svg">
  <defs
     id="defs2">
    <style
       id="style3831"
       type="text/css"><![CDATA[
    .fil0 {fill:#145296}
    .fil3 {fill:#706D6E}
    .fil1 {fill:#8BAED8}
    .fil2 {fill:#FEFEFE}
   ]]></style>
    <style
       id="style3949">.cls-1{fill:#f6b21a;}.cls-2{fill:#2a3172;}</style>
  </defs>
  <sodipodi:namedview
     id="base"
     pagecolor="#ffffff"
     bordercolor="#666666"
     borderopacity="1.0"
     inkscape:pageopacity="0.0"
     inkscape:pageshadow="2"
     inkscape:zoom="0.7"
     inkscape:cx="686.95206"
     inkscape:cy="233.99092"
     inkscape:document-units="mm"
     inkscape:current-layer="layer1"
     showgrid="false"
     inkscape:window-width="1920"
     inkscape:window-height="1168"
     inkscape:window-x="0"
     inkscape:window-y="0"
     inkscape:window-maximized="0"
     inkscape:measure-start="0,0"
     inkscape:measure-end="0,0" />
  <metadata
     id="metadata5">
    <rdf:RDF>
      <cc:Work
         rdf:about="">
        <dc:format>image/svg+xml</dc:format>
        <dc:type
           rdf:resource="http://purl.org/dc/dcmitype/StillImage" />
        <dc:title></dc:title>
      </cc:Work>
    </rdf:RDF>
  </metadata>
  <g
     inkscape:label="Layer 1"
     inkscape:groupmode="layer"
     id="layer1"
     transform="translate(0,-87)">
    <g
       style="clip-rule:evenodd;fill-rule:evenodd;image-rendering:optimizeQuality;shape-rendering:geometricPrecision;text-rendering:geometricPrecision"
       id="g3947"
       transform="matrix(-0.0365873,0,0,-0.0365873,297.81701,263.68087)">
      <g
         id="_367785680"
         transform="translate(-66.145833,585.8631)">
        <path
           style="fill:#145296"
           inkscape:connector-curvature="0"
           class="fil0"
           d="m 2685,2286 c 64,-4 123,9 174,44 92,63 103,136 103,262 0,103 3,172 -52,240 -144,174 -477,122 -482,-214 -3,-176 92,-321 257,-332 z m 448,-500 h -171 l -1,506 c -13,-5 -52,-96 -205,-121 -283,-47 -513,158 -501,465 20,468 529,504 691,294 4,-6 29,-42 34,-44 l 8,148 152,-1 c 1,-45 -5,-100 -6,-148 -1,-53 -1,-105 -1,-158 z"
           id="path3836" />
        <path
           style="fill:#145296"
           inkscape:connector-curvature="0"
           class="fil0"
           d="m 1203,3029 v 4 h 175 l 362,-1045 c 11,13 88,238 102,276 l 99,277 h -236 c -10,3 -20,48 -23,57 -7,20 -15,42 -20,63 h 315 l 140,372 h 179 L 1850,1849 h -203 z"
           id="path3838" />
        <path
           style="fill:#8baed8"
           inkscape:connector-curvature="0"
           class="fil1"
           d="m 4997,2997 -32,-123 c -162,65 -392,69 -544,-8 -137,-69 -234,-209 -233,-421 0,-129 36,-243 113,-333 22,-25 79,-72 116,-89 130,-62 264,-81 414,-54 23,5 45,10 67,16 22,6 41,16 62,22 l 42,-125 c -71,-22 -77,-31 -163,-42 -64,-9 -132,-13 -197,-9 -336,19 -625,221 -633,609 -4,226 93,434 293,534 106,52 200,74 335,79 124,4 257,-15 360,-56 z"
           id="path3840" />
        <path
           style="fill:#8baed8"
           inkscape:connector-curvature="0"
           class="fil1"
           d="m 5392,2284 c 190,-32 308,113 324,282 18,186 -83,343 -241,368 -108,17 -194,-30 -247,-91 -98,-114 -100,-321 -23,-439 41,-61 89,-104 187,-120 z m 501,340 c 7,-146 -45,-257 -115,-331 -82,-87 -204,-125 -323,-129 -181,-6 -354,78 -433,244 -26,54 -40,114 -43,181 -22,457 498,584 775,349 l 29,-29 c 71,-74 105,-180 110,-285 z"
           id="path3842" />
        <path
           style="fill:#8baed8"
           inkscape:connector-curvature="0"
           class="fil1"
           d="m 7249,2606 v -78 c -6,-14 -6,-76 -34,-145 -19,-45 -43,-83 -70,-112 -169,-181 -590,-147 -696,181 -46,143 -37,313 55,434 8,11 10,15 20,24 34,30 23,29 73,64 122,85 307,90 458,63 56,-10 93,-25 141,-39 l -30,-109 c -22,3 -68,20 -97,26 -163,34 -383,25 -457,-149 -46,-108 -42,-310 48,-408 47,-51 96,-80 172,-84 157,-10 255,94 252,250 h -342 v 112 l 502,1 z"
           id="path3844" />
        <path
           style="fill:#145296"
           inkscape:connector-curvature="0"
           class="fil0"
           d="m 3311,2341 c 13,-5 26,-13 38,-19 85,-41 229,-60 315,-27 50,19 87,58 100,117 15,60 11,238 11,324 1,190 -257,252 -354,163 -58,-54 -56,-156 -1,-214 38,-39 94,-58 152,-70 16,-4 51,-3 61,-14 l -1,-103 c -157,12 -360,70 -410,224 -60,180 71,332 271,331 207,-1 276,-122 294,-126 4,20 6,40 9,60 7,49 1,47 19,47 46,2 94,0 139,0 2,-21 -7,-69 -8,-94 -6,-89 -4,-210 -4,-301 0,-130 8,-252 -58,-347 -55,-80 -147,-122 -279,-128 -130,-5 -233,25 -331,73 z"
           id="path3846" />
        <path
           style="fill:#fefefe"
           inkscape:connector-curvature="0"
           class="fil2"
           d="m 5392,2284 c -98,16 -146,59 -187,120 -77,118 -75,325 23,439 53,61 139,108 247,91 158,-25 259,-182 241,-368 -16,-169 -134,-314 -324,-282 z"
           id="path3848" />
        <path
           style="fill:#fefefe"
           inkscape:connector-curvature="0"
           class="fil2"
           d="m 2685,2286 c -165,11 -260,156 -257,332 5,336 338,388 482,214 55,-68 52,-137 52,-240 0,-126 -11,-199 -103,-262 -51,-35 -110,-48 -174,-44 z"
           id="path3850" />
        <path
           style="fill:#8baed8"
           inkscape:connector-curvature="0"
           class="fil1"
           d="m 5969,2183 c 6,144 8,282 7,427 0,79 -5,370 -1,424 l 170,-1 c 5,-78 0,-173 0,-253 0,-123 -17,-253 35,-352 16,-31 33,-48 57,-69 53,-47 116,-51 203,-46 1,-21 2,-130 -2,-144 -75,-15 -148,8 -197,42 -64,42 -77,76 -105,130 -2,3 -2,3 -4,5 l -3,4 c 0,-1 -1,-2 -1,-2 l -10,-163 c -27,-6 -116,-2 -149,-2 z"
           id="path3852" />
      </g>
    </g>
    <g
       id="g3967"
       transform="matrix(-0.96803901,0,0,-0.96803901,288.32024,242.74909)">
      <path
         id="path3955"
         d="m 230,27.44 h 14 V 20.27 H 230 Z M 279.73,7.44 264.6,33.35 249.49,7.41 h -8.3 l 19.15,32.89 h 8.51 L 288,7.41 Z M 26.47,14.67 A 14.69,14.69 0 0 1 14,29.18 l 11.74,14.11 22,-31 V 0 H 11.8 a 14.68,14.68 0 0 1 14.67,14.67 z"
         class="cls-1"
         inkscape:connector-curvature="0"
         style="fill:#f6b21a" />
      <path
         id="path3957"
         d="m 112.51,17.36 a 10,10 0 0 0 -10,-10 h -36 V 40.3 h 7.17 v -13 H 95 l 9.15,13 h 8.78 l -9.19,-13 a 10,10 0 0 0 8.77,-9.94 z m -38.8,2.79 v -5.57 h 28.83 a 2.785,2.785 0 1 1 0,5.57 z m 43.94,20.15 h 7.17 V 7.41 h -7.17 z m 11.74,-22.88 a 10,10 0 0 0 10,10 h 27.1 a 2.845,2.845 0 1 1 0,5.69 h -37.1 v 7.19 h 37.11 a 10,10 0 1 0 0,-20 h -27.1 a 2.845,2.845 0 1 1 0,-5.69 h 37.11 V 7.41 H 139.4 a 10,10 0 0 0 -10.01,10.01 z m 66.77,-2.84 h 30.07 V 7.41 h -30.07 a 16.45,16.45 0 1 0 0,32.89 h 30.07 v -7.17 h -30.07 a 9.275,9.275 0 1 1 0,-18.55 z M 47.7,47.7 v -24 l -17,24 z M 3.14,22.7 h 8.66 a 8.06,8.06 0 1 0 0,-16.12 H 0 V 47.7 H 20.82 L 3.14,26.5 Z"
         class="cls-2"
         inkscape:connector-curvature="0"
         style="fill:#2a3172" />
    </g>
  </g>
</svg>
